<svg xmlns="http://www.w3.org/2000/svg" version="1.0" width="1024.000000pt" height="418.000000pt" viewBox="0 0 1024.000000 418.000000" preserveAspectRatio="xMidYMid meet" transform="matrix(1, 0, 0, 1, 0, 0)">

<g transform="translate(0.000000,418.000000) scale(0.100000,-0.100000)" fill="#023253" stroke="none">
<path d="M2022 3653 c-11 -10 -191 -246 -400 -524 -402 -535 -440 -595 -487 -756 -44 -152 -49 -377 -10 -528 86 -337 338 -597 680 -701 82 -25 105 -27 255 -28 179 -1 217 6 374 66 156 60 350 220 449 371 193 291 213 685 51 998 -30 58 -166 248 -420 585 -206 275 -384 507 -395 517 -12 9 -34 17 -49 17 -15 0 -37 -8 -48 -17z m235 -1110 c94 -126 180 -244 192 -264 86 -145 83 -341 -8 -473 -68 -98 -164 -163 -289 -194 -126 -31 -277 10 -380 103 -161 145 -195 356 -89 548 41 74 376 507 392 507 7 0 89 -102 182 -227z" fill="#023253"/>
<path d="M3831 2931 c-6 -10 -85 -239 -175 -507 -90 -269 -194 -576 -230 -683 -36 -107 -66 -200 -66 -208 0 -10 34 -13 165 -13 162 0 166 0 175 23 5 12 28 82 51 155 l41 132 251 -2 250 -3 49 -152 49 -153 169 0 c94 0 170 4 170 9 0 4 -107 325 -238 712 l-239 704 -206 3 c-194 2 -207 1 -216 -17z m379 -838 c0 -10 -38 -13 -163 -13 -90 0 -166 3 -169 6 -3 3 33 121 80 262 l85 257 84 -250 c45 -137 83 -255 83 -262z" fill="#023253"/>
<path d="M4852 2943 c-10 -4 -12 -104 -10 -511 5 -851 7 -909 24 -916 9 -3 81 -3 160 1 l144 6 0 234 0 233 139 0 c248 0 388 40 488 140 55 55 104 145 123 229 18 75 8 221 -19 292 -67 177 -205 268 -435 289 -106 10 -592 12 -614 3z m623 -282 c60 -21 91 -46 115 -97 31 -63 24 -156 -15 -215 -44 -67 -93 -83 -262 -87 l-143 -4 0 209 0 209 133 -1 c81 0 147 -6 172 -14z" fill="#023253"/>
<path d="M6117 2943 c-2 -5 -2 -37 -1 -73 1 -36 3 -354 3 -707 l1 -643 160 0 160 0 0 709 c0 637 -2 709 -16 715 -23 9 -302 7 -307 -1z" fill="#023253"/>
<path d="M6712 2942 c-10 -7 -12 -156 -10 -713 l3 -704 154 -3 c117 -2 157 1 163 10 4 7 8 104 7 215 l-1 203 53 65 c29 36 55 65 58 65 3 -1 97 -127 209 -280 l203 -280 185 0 c146 0 184 3 178 13 -5 6 -45 64 -89 127 -186 264 -313 441 -383 534 -52 68 -72 103 -66 112 5 7 122 147 260 311 137 164 254 304 258 311 6 9 -32 12 -177 12 l-183 0 -245 -292 c-134 -160 -250 -293 -256 -296 -10 -3 -13 60 -13 292 l0 296 -134 0 c-74 0 -140 2 -148 5 -7 3 -19 1 -26 -3z" fill="#023253"/>
<path d="M8414 2913 c-25 -58 -464 -1366 -464 -1380 0 -10 39 -13 169 -13 l170 0 40 128 c22 70 43 139 46 155 l7 27 252 0 252 0 49 -152 50 -153 168 -3 c99 -1 167 1 167 7 0 7 -231 694 -439 1306 l-38 110 -207 3 -207 2 -15 -37z m385 -815 c1 -5 -73 -8 -164 -8 -91 0 -165 3 -165 7 0 3 37 119 82 257 l81 251 83 -250 c45 -137 83 -253 83 -257z" fill="#023253"/>
</g>
</svg>